<mxfile host="app.diagrams.net" modified="2022-08-26T12:57:20.711Z" agent="5.0 (X11; Linux x86_64) AppleWebKit/537.36 (KHTML, like Gecko) Chrome/104.0.5112.102 Safari/537.36" etag="mKvYEETAd_ATecjh__zw" version="20.2.7" type="github">
  <diagram id="8oheerTKiJyqa03rfHn-" name="PÃ¡gina-1">
    <mxGraphModel dx="868" dy="490" grid="1" gridSize="10" guides="1" tooltips="1" connect="1" arrows="1" fold="1" page="1" pageScale="1" pageWidth="827" pageHeight="1169" math="0" shadow="0">
      <root>
        <mxCell id="0" />
        <mxCell id="1" parent="0" />
        <mxCell id="aILVS_l5pXViTTUl7Fk8-1" value="" style="endArrow=classic;html=1;rounded=0;" edge="1" parent="1">
          <mxGeometry width="50" height="50" relative="1" as="geometry">
            <mxPoint x="269.5" y="220" as="sourcePoint" />
            <mxPoint x="269.5" y="20" as="targetPoint" />
          </mxGeometry>
        </mxCell>
        <mxCell id="aILVS_l5pXViTTUl7Fk8-3" value="" style="endArrow=classic;html=1;rounded=0;" edge="1" parent="1">
          <mxGeometry width="50" height="50" relative="1" as="geometry">
            <mxPoint x="310" y="244.5" as="sourcePoint" />
            <mxPoint x="580" y="244.5" as="targetPoint" />
          </mxGeometry>
        </mxCell>
        <mxCell id="aILVS_l5pXViTTUl7Fk8-4" value="" style="endArrow=classic;html=1;rounded=0;" edge="1" parent="1">
          <mxGeometry width="50" height="50" relative="1" as="geometry">
            <mxPoint x="260" y="260" as="sourcePoint" />
            <mxPoint x="140" y="390" as="targetPoint" />
          </mxGeometry>
        </mxCell>
        <mxCell id="aILVS_l5pXViTTUl7Fk8-6" value="Middleware" style="text;html=1;resizable=0;autosize=1;align=center;verticalAlign=middle;points=[];fillColor=none;strokeColor=none;rounded=0;" vertex="1" parent="1">
          <mxGeometry x="230" y="230" width="80" height="30" as="geometry" />
        </mxCell>
        <mxCell id="aILVS_l5pXViTTUl7Fk8-8" value="Soporte" style="text;html=1;resizable=0;autosize=1;align=center;verticalAlign=middle;points=[];fillColor=none;strokeColor=none;rounded=0;" vertex="1" parent="1">
          <mxGeometry x="200" y="30" width="70" height="30" as="geometry" />
        </mxCell>
        <mxCell id="aILVS_l5pXViTTUl7Fk8-9" value="Datos" style="text;html=1;resizable=0;autosize=1;align=center;verticalAlign=middle;points=[];fillColor=none;strokeColor=none;rounded=0;" vertex="1" parent="1">
          <mxGeometry x="415" y="245" width="50" height="30" as="geometry" />
        </mxCell>
        <mxCell id="aILVS_l5pXViTTUl7Fk8-11" value="Tecnicas" style="text;html=1;resizable=0;autosize=1;align=center;verticalAlign=middle;points=[];fillColor=none;strokeColor=none;rounded=0;" vertex="1" parent="1">
          <mxGeometry x="195" y="325" width="70" height="30" as="geometry" />
        </mxCell>
      </root>
    </mxGraphModel>
  </diagram>
</mxfile>
